<svg width="698" height="320" viewBox="0 0 698 320" fill="none" xmlns="http://www.w3.org/2000/svg">
<g filter="url(#filter0_d_1_122)">
<path d="M35.3627 2.03125V130H4.60098V2.03125H35.3627ZM109.191 2.03125L63.224 79.375H30.0014L26.31 51.5137H47.3158L71.9252 2.03125H109.191ZM77.1986 130L47.2279 74.0137L69.64 53.3594L113.585 130H77.1986ZM150.258 82.8027L196.224 2.03125H227.074V130H196.224V49.3164L150.258 130H119.408V2.03125H150.258V82.8027ZM318.59 86.6699H349.352C348.941 95.5762 346.539 103.428 342.145 110.225C337.75 117.021 331.656 122.324 323.863 126.133C316.129 129.883 306.988 131.758 296.441 131.758C287.887 131.758 280.24 130.322 273.502 127.451C266.822 124.58 261.139 120.449 256.451 115.059C251.822 109.668 248.277 103.135 245.816 95.459C243.414 87.7832 242.213 79.1406 242.213 69.5312V62.5879C242.213 52.9785 243.473 44.3359 245.992 36.6602C248.57 28.9258 252.203 22.3633 256.891 16.9727C261.637 11.5234 267.32 7.36328 273.941 4.49219C280.562 1.62109 287.916 0.185547 296.002 0.185547C307.135 0.185547 316.539 2.17773 324.215 6.16211C331.891 10.1465 337.838 15.625 342.057 22.5977C346.275 29.5117 348.766 37.3926 349.527 46.2402H318.766C318.648 41.4355 317.828 37.4219 316.305 34.1992C314.781 30.918 312.379 28.457 309.098 26.8164C305.816 25.1758 301.451 24.3555 296.002 24.3555C292.193 24.3555 288.883 25.0586 286.07 26.4648C283.258 27.8711 280.914 30.0977 279.039 33.1445C277.164 36.1914 275.758 40.1465 274.82 45.0098C273.941 49.8145 273.502 55.6152 273.502 62.4121V69.5312C273.502 76.3281 273.912 82.1289 274.732 86.9336C275.553 91.7383 276.871 95.6641 278.688 98.7109C280.504 101.758 282.848 104.014 285.719 105.479C288.648 106.885 292.223 107.588 296.441 107.588C301.129 107.588 305.084 106.855 308.307 105.391C311.529 103.867 314.02 101.582 315.777 98.5352C317.535 95.4297 318.473 91.4746 318.59 86.6699ZM395.604 2.03125V130H364.842V2.03125H395.604ZM417.752 57.7539V80.6934H380.75V57.7539H417.752ZM520.057 63.4668V68.6523C520.057 78.4375 518.68 87.2266 515.926 95.0195C513.231 102.754 509.393 109.375 504.412 114.883C499.432 120.332 493.543 124.521 486.746 127.451C479.95 130.322 472.45 131.758 464.246 131.758C455.985 131.758 448.426 130.322 441.571 127.451C434.774 124.521 428.856 120.332 423.817 114.883C418.836 109.375 414.969 102.754 412.215 95.0195C409.52 87.2266 408.172 78.4375 408.172 68.6523V63.4668C408.172 53.6816 409.52 44.8926 412.215 37.0996C414.969 29.3066 418.807 22.6855 423.729 17.2363C428.709 11.7285 434.598 7.53906 441.395 4.66797C448.25 1.73828 455.809 0.273438 464.071 0.273438C472.274 0.273438 479.774 1.73828 486.571 4.66797C493.426 7.53906 499.344 11.7285 504.325 17.2363C509.305 22.6855 513.172 29.3066 515.926 37.0996C518.68 44.8926 520.057 53.6816 520.057 63.4668ZM488.768 68.6523V63.291C488.768 56.9629 488.211 51.3965 487.098 46.5918C486.043 41.7285 484.461 37.6562 482.352 34.375C480.242 31.0938 477.635 28.6328 474.53 26.9922C471.483 25.293 467.996 24.4434 464.071 24.4434C459.969 24.4434 456.395 25.293 453.348 26.9922C450.301 28.6328 447.752 31.0938 445.701 34.375C443.651 37.6562 442.098 41.7285 441.043 46.5918C440.047 51.3965 439.549 56.9629 439.549 63.291V68.6523C439.549 74.9219 440.047 80.4883 441.043 85.3516C442.098 90.1562 443.651 94.2285 445.701 97.5684C447.811 100.908 450.389 103.428 453.436 105.127C456.541 106.826 460.145 107.676 464.246 107.676C468.172 107.676 471.659 106.826 474.705 105.127C477.752 103.428 480.301 100.908 482.352 97.5684C484.461 94.2285 486.043 90.1562 487.098 85.3516C488.211 80.4883 488.768 74.9219 488.768 68.6523ZM538.008 2.03125H568.946V106.27H600.762V2.03125H631.612V106.27H662.989V2.03125H693.751V130H538.008V2.03125ZM29.8147 182.031H80.176C90.0198 182.031 98.5745 183.496 105.84 186.426C113.106 189.355 118.701 193.691 122.627 199.434C126.612 205.176 128.604 212.266 128.604 220.703C128.604 228.027 127.461 234.15 125.176 239.072C122.891 243.994 119.698 248.066 115.596 251.289C111.553 254.453 106.836 257.061 101.446 259.111L91.3381 264.824H49.0627L48.887 241.006H80.176C84.1018 241.006 87.3538 240.303 89.9319 238.896C92.51 237.49 94.4436 235.498 95.7327 232.92C97.0803 230.283 97.7542 227.148 97.7542 223.516C97.7542 219.824 97.0803 216.66 95.7327 214.023C94.385 211.387 92.3928 209.365 89.7561 207.959C87.178 206.553 83.9846 205.85 80.176 205.85H60.6643V310H29.8147V182.031ZM99.8635 310L71.5627 253.398L104.258 253.223L132.91 308.682V310H99.8635ZM255.364 243.467V248.652C255.364 258.438 253.987 267.227 251.233 275.02C248.538 282.754 244.7 289.375 239.719 294.883C234.739 300.332 228.85 304.521 222.053 307.451C215.256 310.322 207.756 311.758 199.553 311.758C191.292 311.758 183.733 310.322 176.878 307.451C170.081 304.521 164.163 300.332 159.124 294.883C154.143 289.375 150.276 282.754 147.522 275.02C144.827 267.227 143.479 258.438 143.479 248.652V243.467C143.479 233.682 144.827 224.893 147.522 217.1C150.276 209.307 154.114 202.686 159.036 197.236C164.016 191.729 169.905 187.539 176.702 184.668C183.557 181.738 191.116 180.273 199.378 180.273C207.581 180.273 215.081 181.738 221.878 184.668C228.733 187.539 234.651 191.729 239.631 197.236C244.612 202.686 248.479 209.307 251.233 217.1C253.987 224.893 255.364 233.682 255.364 243.467ZM224.075 248.652V243.291C224.075 236.963 223.518 231.396 222.405 226.592C221.35 221.729 219.768 217.656 217.659 214.375C215.549 211.094 212.942 208.633 209.836 206.992C206.79 205.293 203.303 204.443 199.378 204.443C195.276 204.443 191.702 205.293 188.655 206.992C185.608 208.633 183.059 211.094 181.008 214.375C178.958 217.656 177.405 221.729 176.35 226.592C175.354 231.396 174.856 236.963 174.856 243.291V248.652C174.856 254.922 175.354 260.488 176.35 265.352C177.405 270.156 178.958 274.229 181.008 277.568C183.118 280.908 185.696 283.428 188.743 285.127C191.848 286.826 195.452 287.676 199.553 287.676C203.479 287.676 206.965 286.826 210.012 285.127C213.059 283.428 215.608 280.908 217.659 277.568C219.768 274.229 221.35 270.156 222.405 265.352C223.518 260.488 224.075 254.922 224.075 248.652ZM290.542 182.031L314.097 237.578L337.739 182.031H370.962L329.829 264.033V310H298.452V264.033L257.231 182.031H290.542ZM421.257 208.926L390.056 310H356.921L403.943 182.031H424.948L421.257 208.926ZM447.097 310L415.808 208.926L411.765 182.031H433.034L480.319 310H447.097ZM445.866 262.275V286.094H380.212V262.275H445.866ZM574.121 286.27V310H509.433V286.27H574.121ZM520.419 182.031V310H489.57V182.031H520.419ZM675.041 286.27V310H606.838V286.27H675.041ZM617.824 182.031V310H586.974V182.031H617.824ZM666.252 232.832V255.771H606.838V232.832H666.252ZM675.304 182.031V205.85H606.838V182.031H675.304Z" fill="white"/>
</g>
<defs>
<filter id="filter0_d_1_122" x="0.600952" y="0.185547" width="697.15" height="319.572" filterUnits="userSpaceOnUse" color-interpolation-filters="sRGB">
<feFlood flood-opacity="0" result="BackgroundImageFix"/>
<feColorMatrix in="SourceAlpha" type="matrix" values="0 0 0 0 0 0 0 0 0 0 0 0 0 0 0 0 0 0 127 0" result="hardAlpha"/>
<feOffset dy="4"/>
<feGaussianBlur stdDeviation="2"/>
<feComposite in2="hardAlpha" operator="out"/>
<feColorMatrix type="matrix" values="0 0 0 0 0 0 0 0 0 0 0 0 0 0 0 0 0 0 0.25 0"/>
<feBlend mode="normal" in2="BackgroundImageFix" result="effect1_dropShadow_1_122"/>
<feBlend mode="normal" in="SourceGraphic" in2="effect1_dropShadow_1_122" result="shape"/>
</filter>
</defs>
</svg>
